<svg width="56" height="56" viewBox="0 0 56 56" fill="none" xmlns="http://www.w3.org/2000/svg">
<path opacity="0.1" fill-rule="evenodd" clip-rule="evenodd" d="M27.6382 55C42.35 55 54.2764 43.0737 54.2764 28.3618C54.2764 13.65 42.35 1.72363 27.6382 1.72363C12.9263 1.72363 1 13.65 1 28.3618C1 43.0737 12.9263 55 27.6382 55Z" stroke="white" stroke-width="1.5"/>
<path d="M34.48 12.1599C39.6406 12.1599 43.84 16.3593 43.84 21.5199V34.4799C43.84 39.6405 39.6406 43.8399 34.48 43.8399H21.52C16.3594 43.8399 12.16 39.6405 12.16 34.4799V21.5199C12.16 16.3593 16.3594 12.1599 21.52 12.1599H34.48ZM34.48 13.5999H21.52C17.1377 13.5999 13.6 17.1376 13.6 21.5199V34.4799C13.6 38.8622 17.1377 42.3999 21.52 42.3999H34.48C38.8622 42.3999 42.4 38.8622 42.4 34.4799V21.5199C42.4 17.1376 38.8622 13.5999 34.48 13.5999ZM19.36 17.9199C19.7419 17.9199 20.1081 18.0716 20.3782 18.3417C20.6483 18.6117 20.8 18.978 20.8 19.3599C20.8 19.7418 20.6483 20.1081 20.3782 20.3781C20.1081 20.6482 19.7419 20.7999 19.36 20.7999C18.9781 20.7999 18.6118 20.6482 18.3417 20.3781C18.0717 20.1081 17.92 19.7418 17.92 19.3599C17.92 18.978 18.0717 18.6117 18.3417 18.3417C18.6118 18.0716 18.9781 17.9199 19.36 17.9199ZM28 20.0799C32.3655 20.0799 35.92 23.6343 35.92 27.9999C35.92 32.3655 32.3655 35.9199 28 35.9199C23.6344 35.9199 20.08 32.3655 20.08 27.9999C20.08 23.6343 23.6344 20.0799 28 20.0799ZM28 21.5199C24.4126 21.5199 21.52 24.4126 21.52 27.9999C21.52 31.5872 24.4126 34.4799 28 34.4799C31.5873 34.4799 34.48 31.5872 34.48 27.9999C34.48 24.4126 31.5873 21.5199 28 21.5199Z" fill="white"/>
</svg>
