<svg width="53" height="54" viewBox="0 0 53 54" fill="none" xmlns="http://www.w3.org/2000/svg">
<path opacity="0.1" fill-rule="evenodd" clip-rule="evenodd" d="M26.5 52.7236C40.5833 52.7236 52 41.3069 52 27.2236C52 13.1404 40.5833 1.72363 26.5 1.72363C12.4167 1.72363 1 13.1404 1 27.2236C1 41.3069 12.4167 52.7236 26.5 52.7236Z" stroke="white" stroke-width="1.5"/>
<g clip-path="url(#clip0_10_4051)">
<path fill-rule="evenodd" clip-rule="evenodd" d="M32.6527 11C33.1721 15.3993 35.6653 18.0222 40 18.3012V23.2493C37.488 23.4911 35.2875 22.682 32.7283 21.1566V30.411C32.7283 42.1674 19.7146 45.8413 14.4827 37.4146C11.1207 31.9922 13.1795 22.4773 23.9644 22.096V27.3138C23.1427 27.444 22.2645 27.6487 21.4617 27.9184C19.063 28.7183 17.7031 30.2157 18.0808 32.8572C18.808 37.9169 28.233 39.4143 27.4491 29.5275V11.0093H32.6527V11Z" fill="white"/>
</g>
<defs>
<clipPath id="clip0_10_4051">
<rect width="27" height="31" fill="white" transform="translate(13 11)"/>
</clipPath>
</defs>
</svg>
